<svg width="32" height="32" viewBox="0 0 32 32" fill="none" xmlns="http://www.w3.org/2000/svg">
  <path d="M6 6H26C27.1046 6 28 6.89543 28 8V24C28 25.1046 27.1046 26 26 26H6C4.89543 26 4 25.1046 4 24V8C4 6.89543 4.89543 6 6 6Z" fill="#667781" fill-opacity="0.1"/>
  <path d="M11 12L18 8L17 13L21 14L14 18L15 13L11 12Z" fill="#008069"/>
  <path d="M21 20C22.6569 20 24 18.6569 24 17C24 15.3431 22.6569 14 21 14C19.3431 14 18 15.3431 18 17C18 18.6569 19.3431 20 21 20Z" fill="#00A884"/>
  <path d="M12 22C13.6569 22 15 20.6569 15 19C15 17.3431 13.6569 16 12 16C10.3431 16 9 17.3431 9 19C9 20.6569 10.3431 22 12 22Z" fill="#25D366"/>
</svg>